<?xml version="1.0" encoding="UTF-8"?>
<svg height="128px" viewBox="0 0 128 128" width="128px" xmlns="http://www.w3.org/2000/svg" xmlns:xlink="http://www.w3.org/1999/xlink">
    <linearGradient id="a" gradientTransform="matrix(0.965926 0.258819 -0.258819 0.965926 80.325581 -174.986289)" gradientUnits="userSpaceOnUse" x1="-5.622379" x2="83.501404" y1="212.097153" y2="188.216507">
        <stop offset="0" stop-color="#26a269"/>
        <stop offset="0.01" stop-color="#57e389"/>
        <stop offset="0.0707727" stop-color="#26a269"/>
        <stop offset="0.64" stop-color="#26a269"/>
        <stop offset="0.72" stop-color="#57e389"/>
        <stop offset="0.75" stop-color="#26a269"/>
    </linearGradient>
    <linearGradient id="b" gradientUnits="userSpaceOnUse" x1="17.00078" x2="99.699998" y1="71.070126" y2="71.070126">
        <stop offset="0" stop-color="#c64600"/>
        <stop offset="0.02" stop-color="#ff7800"/>
        <stop offset="0.08" stop-color="#c64600"/>
        <stop offset="0.75" stop-color="#c64600"/>
        <stop offset="0.82" stop-color="#ff7800"/>
        <stop offset="0.86" stop-color="#c64600"/>
        <stop offset="1" stop-color="#c64600"/>
    </linearGradient>
    <linearGradient id="c" gradientUnits="userSpaceOnUse" x1="14" x2="86" y1="111" y2="111">
        <stop offset="0" stop-color="#1a5fb4"/>
        <stop offset="0.0469078" stop-color="#3584e4"/>
        <stop offset="0.1" stop-color="#1a5fb4"/>
        <stop offset="0.9" stop-color="#1a5fb4"/>
        <stop offset="0.953878" stop-color="#3584e4"/>
        <stop offset="1" stop-color="#1a5fb4"/>
    </linearGradient>
    <path d="m 112.257812 28.429688 c 0.003907 0.199218 0.007813 0.398437 -0.003906 0.601562 c -0.015625 0.273438 -0.042968 0.546875 -0.089844 0.820312 c -0.042968 0.273438 -0.101562 0.546876 -0.175781 0.820313 l -22.164062 82.71875 c -0.074219 0.277344 -0.160157 0.542969 -0.257813 0.800781 c -0.097656 0.257813 -0.210937 0.511719 -0.332031 0.753906 c -0.121094 0.242188 -0.257813 0.476563 -0.402344 0.703126 c -0.144531 0.230468 -0.300781 0.445312 -0.464843 0.65625 c -0.164063 0.210937 -0.339844 0.410156 -0.523438 0.601562 s -0.375 0.371094 -0.578125 0.542969 c -0.199219 0.171875 -0.410156 0.332031 -0.625 0.484375 s -0.4375 0.289062 -0.667969 0.417968 c -0.230468 0.132813 -0.46875 0.25 -0.710937 0.359376 c -0.238281 0.105468 -0.488281 0.203124 -0.742188 0.285156 c -0.25 0.085937 -0.507812 0.160156 -0.769531 0.21875 c -0.257812 0.058594 -0.523438 0.109375 -0.792969 0.144531 c -0.265625 0.035156 -0.539062 0.058594 -0.8125 0.066406 c -0.269531 0.007813 -0.546875 0.003907 -0.824219 -0.015625 c -0.273437 -0.015625 -0.554687 -0.046875 -0.832031 -0.09375 c -0.277343 -0.046875 -0.558593 -0.105468 -0.839843 -0.179687 l -53.433594 -14.320313 c -0.277344 -0.074218 -0.546875 -0.160156 -0.8125 -0.261718 c -0.265625 -0.097657 -0.519532 -0.210938 -0.769532 -0.332032 s -0.488281 -0.257812 -0.722656 -0.402344 c -0.230468 -0.144531 -0.453125 -0.296874 -0.667968 -0.464843 c -0.214844 -0.164063 -0.421876 -0.335938 -0.617188 -0.519531 c -0.195312 -0.183594 -0.378906 -0.375 -0.558594 -0.574219 c -0.175781 -0.195313 -0.34375 -0.402344 -0.5 -0.617188 c -0.152344 -0.214843 -0.296875 -0.4375 -0.433594 -0.664062 c -0.132812 -0.226563 -0.253906 -0.460938 -0.367187 -0.699219 s -0.210937 -0.484375 -0.300781 -0.734375 c -0.089844 -0.246094 -0.164063 -0.5 -0.230469 -0.757813 c -0.0625 -0.253906 -0.113281 -0.519531 -0.152344 -0.78125 c -0.035156 -0.265624 -0.0625 -0.53125 -0.074219 -0.800781 c -0.007812 -0.15625 0 -0.3125 0.003907 -0.472656 h -0.011719 v 2.109375 h 0.011719 c -0.003907 0.457031 0.035156 0.90625 0.109375 1.347656 c 0.074218 0.441406 0.1875 0.871094 0.332031 1.292969 c 0.140625 0.417969 0.320313 0.824219 0.53125 1.214844 c 0.207031 0.390625 0.449219 0.765625 0.722656 1.117187 c 0.269531 0.355469 0.570313 0.6875 0.898438 0.996094 c 0.324219 0.308594 0.679687 0.59375 1.058593 0.847656 c 0.378907 0.253906 0.78125 0.480469 1.210938 0.675782 c 0.425781 0.195312 0.871094 0.355468 1.34375 0.480468 l 53.433594 14.320313 c 0.277344 0.074219 0.554687 0.136719 0.835937 0.179687 c 0.277344 0.046875 0.554688 0.078125 0.832031 0.09375 c 0.277344 0.019532 0.554688 0.023438 0.828126 0.015625 c 0.269531 -0.007812 0.542968 -0.03125 0.8125 -0.066406 c 0.265624 -0.035156 0.53125 -0.082031 0.792968 -0.144531 c 0.257813 -0.058594 0.515625 -0.132813 0.769532 -0.214844 c 0.25 -0.085938 0.5 -0.183594 0.742187 -0.289062 c 0.238281 -0.109376 0.476563 -0.226563 0.707031 -0.355469 c 0.226563 -0.128907 0.453125 -0.269531 0.667969 -0.421875 s 0.425781 -0.3125 0.625 -0.484375 s 0.394531 -0.351563 0.578125 -0.542969 s 0.359375 -0.394531 0.523438 -0.601562 c 0.164062 -0.210938 0.320312 -0.429688 0.464843 -0.65625 c 0.144531 -0.226563 0.277344 -0.460938 0.402344 -0.703126 c 0.121094 -0.242187 0.234375 -0.496093 0.332031 -0.753906 c 0.097656 -0.257812 0.183594 -0.527344 0.257813 -0.800781 l 22.167969 -82.71875 c 0.101562 -0.378906 0.171874 -0.761719 0.214843 -1.140625 s 0.058594 -0.753906 0.050781 -1.128906 h 0.011719 v -1.972656 z m 0 0" fill="url(#a)"/>
    <path d="m 52.617188 6.292969 l 53.433593 14.316406 c 4.464844 1.199219 7.113281 5.683594 5.9375 10.0625 l -22.164062 82.722656 c -1.171875 4.375 -5.710938 6.9375 -10.171875 5.742188 l -53.433594 -14.320313 c -4.464844 -1.195312 -7.113281 -5.679687 -5.941406 -10.058594 l 22.164062 -82.722656 c 1.175782 -4.375 5.710938 -6.9375 10.175782 -5.742187 z m 0 0" fill="#33d17a"/>
    <path d="m 99.699219 23.65625 c -0.007813 0.277344 -0.03125 0.558594 -0.066407 0.839844 l -11.179687 84.90625 c -0.035156 0.28125 -0.085937 0.554687 -0.152344 0.824218 c -0.0625 0.269532 -0.140625 0.53125 -0.230469 0.789063 c -0.089843 0.257813 -0.191406 0.507813 -0.304687 0.753906 c -0.113281 0.242188 -0.238281 0.476563 -0.375 0.707031 c -0.136719 0.230469 -0.285156 0.453126 -0.441406 0.664063 c -0.15625 0.214844 -0.324219 0.417969 -0.5 0.617187 c -0.179688 0.195313 -0.363281 0.382813 -0.558594 0.558594 c -0.195313 0.179688 -0.398437 0.347656 -0.609375 0.507813 c -0.210938 0.15625 -0.429688 0.304687 -0.65625 0.445312 c -0.226562 0.136719 -0.457031 0.265625 -0.695312 0.382813 c -0.238282 0.113281 -0.484376 0.21875 -0.734376 0.3125 c -0.253906 0.09375 -0.507812 0.175781 -0.769531 0.246094 c -0.261719 0.070312 -0.527343 0.128906 -0.796875 0.171874 c -0.269531 0.046876 -0.542968 0.074219 -0.820312 0.09375 c -0.277344 0.019532 -0.558594 0.023438 -0.839844 0.015626 c -0.28125 -0.007813 -0.5625 -0.03125 -0.851562 -0.070313 l -54.84375 -7.21875 c -0.289063 -0.039063 -0.566407 -0.089844 -0.84375 -0.152344 c -0.273438 -0.066406 -0.542969 -0.144531 -0.804688 -0.234375 c -0.265625 -0.089844 -0.519531 -0.1875 -0.769531 -0.300781 s -0.488281 -0.238281 -0.722657 -0.375 c -0.234374 -0.132813 -0.460937 -0.28125 -0.679687 -0.433594 c -0.21875 -0.15625 -0.429687 -0.320312 -0.628906 -0.496093 c -0.203125 -0.175782 -0.394531 -0.359376 -0.574219 -0.550782 c -0.183594 -0.191406 -0.355469 -0.390625 -0.519531 -0.597656 c -0.160157 -0.210938 -0.3125 -0.425781 -0.457031 -0.648438 c -0.140626 -0.222656 -0.273438 -0.449218 -0.390626 -0.683593 c -0.121093 -0.238281 -0.230468 -0.476563 -0.328124 -0.722657 c -0.097657 -0.25 -0.179688 -0.5 -0.253907 -0.757812 c -0.070312 -0.257812 -0.132812 -0.515625 -0.179687 -0.78125 s -0.078125 -0.535156 -0.097656 -0.804688 c -0.015626 -0.214843 -0.019532 -0.433593 -0.015626 -0.648437 h -0.007812 v 2.566406 h 0.019531 c 0.03125 0.480469 0.105469 0.949219 0.21875 1.40625 s 0.265625 0.898438 0.453125 1.324219 s 0.414063 0.835938 0.671875 1.222656 c 0.257813 0.386719 0.546875 0.75 0.867188 1.089844 c 0.316406 0.335938 0.667969 0.652344 1.042969 0.933594 c 0.375 0.285156 0.777343 0.535156 1.199218 0.757812 c 0.425782 0.21875 0.875 0.402344 1.339844 0.550782 c 0.46875 0.144531 0.957031 0.253906 1.460938 0.320312 l 54.84375 7.222656 c 0.285156 0.035156 0.570312 0.058594 0.855468 0.070313 c 0.28125 0.007812 0.558594 0.003906 0.835938 -0.015625 c 0.277344 -0.019532 0.550781 -0.050782 0.820312 -0.09375 c 0.269532 -0.046875 0.535156 -0.105469 0.796875 -0.171875 c 0.261719 -0.070313 0.519531 -0.152344 0.769531 -0.246094 s 0.496094 -0.203125 0.734376 -0.316406 c 0.238281 -0.117188 0.46875 -0.246094 0.695312 -0.382813 c 0.226562 -0.136718 0.445312 -0.289062 0.65625 -0.445312 c 0.210938 -0.160156 0.414062 -0.328125 0.609375 -0.503906 c 0.195313 -0.179688 0.378906 -0.367188 0.558594 -0.5625 c 0.175781 -0.199219 0.34375 -0.402344 0.5 -0.613282 c 0.15625 -0.214844 0.304687 -0.4375 0.441406 -0.664062 c 0.136719 -0.230469 0.261719 -0.46875 0.375 -0.710938 c 0.113281 -0.242187 0.214844 -0.496094 0.304687 -0.75 c 0.089844 -0.257812 0.167969 -0.523437 0.230469 -0.792968 c 0.066407 -0.269532 0.117188 -0.546876 0.152344 -0.824219 l 11.179687 -84.90625 c 0.042969 -0.332031 0.058594 -0.660157 0.0625 -0.984375 h 0.003907 z m 0 0" fill="url(#b)"/>
    <path d="m 37.585938 8.074219 l 54.84375 7.21875 c 4.582031 0.605469 7.792968 4.707031 7.203124 9.199219 l -11.179687 84.910156 c -0.589844 4.492187 -4.753906 7.621094 -9.335937 7.019531 l -54.84375 -7.21875 c -4.582032 -0.605469 -7.792969 -4.707031 -7.203126 -9.199219 l 11.179688 -84.90625 c 0.589844 -4.496094 4.753906 -7.625 9.335938 -7.023437 z m 0 0" fill="#ff7800"/>
    <path d="m 14 106 h 72 v 2 c 0 4.417969 -3.582031 8 -8 8 h -56.03125 c -4.402344 0 -7.96875 -3.566406 -7.96875 -7.96875 z m 0 0" fill="url(#c)"/>
    <path d="m 22.339844 12 h 55.320312 c 4.621094 0 8.339844 3.648438 8.339844 8.179688 v 85.640624 c 0 4.53125 -3.71875 8.179688 -8.339844 8.179688 h -55.320312 c -4.621094 0 -8.339844 -3.648438 -8.339844 -8.179688 v -85.640624 c 0 -4.53125 3.71875 -8.179688 8.339844 -8.179688 z m 0 0" fill="#3584e4"/>
    <g fill="#ffffff">
        <path d="m 52 60 v 16 h 16 v -16 z m 4 4 h 8 v 8 h -8 z m 0 0"/>
        <path d="m 58 66 h 4 v 4 h -4 z m 0 0"/>
        <path d="m 60 84 h -4 v -4 h 4 z m 0 0"/>
        <path d="m 60 88 h -4 v -4 h 4 z m 0 0"/>
        <path d="m 56 84 h -4 v -4 h 4 z m 0 0"/>
        <path d="m 64 84 h -4 v -4 h 4 z m 0 0"/>
        <path d="m 68 96 h -4 v -4 h 4 z m 0 0"/>
        <path d="m 56 92 h -4 v -4 h 4 z m 0 0"/>
        <path d="m 56 96 h -4 v -4 h 4 z m 0 0"/>
        <path d="m 68 88 h -4 v -4 h 4 z m 0 0"/>
        <path d="m 32 60 v 16 h 16 v -16 z m 4 4 h 8 v 8 h -8 z m 0 0"/>
        <path d="m 38 66 h 4 v 4 h -4 z m 0 0"/>
        <path d="m 32 80 v 16 h 16 v -16 z m 4 4 h 8 v 8 h -8 z m 0 0"/>
        <path d="m 38 86 h 4 v 4 h -4 z m 0 0"/>
        <path d="m 60 96 h -4 v -4 h 4 z m 0 0"/>
        <path d="m 64 92 h -4 v -4 h 4 z m 0 0"/>
        <path d="m 68 92 h -4 v -4 h 4 z m 0 0"/>
    </g>
    <path d="m 32 40 h 36 v 8 h -36 z m 0 0" fill="#99c1f1"/>
    <path d="m 32 32 h 24 v 4 h -24 z m 0 0" fill="#99c1f1"/>
</svg>
